<svg width="36" height="31" viewBox="0 0 36 31" fill="none" xmlns="http://www.w3.org/2000/svg">
<path d="M5.34526 16.0344C3.75251 17.5951 2.13838 19.4658 2.13838 21.9137C2.13838 23.473 2.7578 24.9684 3.86038 26.071C4.96296 27.1735 6.45838 27.793 8.01766 27.793C9.89903 27.793 11.2245 27.2585 12.828 25.655C14.4314 27.2585 15.7569 27.793 17.6383 27.793C19.1976 27.793 20.693 27.1735 21.7956 26.071C22.8982 24.9684 23.5176 23.473 23.5176 21.9137C23.5176 19.4551 21.9141 17.5844 20.3107 16.0344L12.828 8.55169L5.34526 16.0344Z" stroke="#00292E" stroke-width="2.13792" stroke-linecap="round" stroke-linejoin="round"/>
<path d="M14.9654 16.0344C13.3726 17.5951 11.7585 19.4658 11.7585 21.9137C11.7585 23.473 12.3779 24.9684 13.4805 26.071C14.5831 27.1735 16.0785 27.793 17.6378 27.793C19.5191 27.793 20.8447 27.2585 22.4481 25.655C24.0515 27.2585 25.377 27.793 27.2584 27.793C28.8177 27.793 30.3131 27.1735 31.4157 26.071C32.5183 24.9684 33.1377 23.473 33.1377 21.9137C33.1377 19.4551 31.5343 17.5844 29.9308 16.0344L22.4481 8.55169L14.9654 16.0344Z" stroke="#00292E" stroke-width="2.13792" stroke-linecap="round" stroke-linejoin="round"/>
<circle cx="17.2069" cy="3.20688" r="3.20688" fill="#F99927"/>
</svg>
