<svg width="24" height="24" viewBox="0 0 24 24" fill="none" xmlns="http://www.w3.org/2000/svg">
<path d="M13.3019 3.52492C14.253 2.57385 15.5429 2.03955 16.8879 2.03955C18.233 2.03955 19.5229 2.57385 20.4739 3.52492C21.425 4.47599 21.9593 5.76591 21.9593 7.11092C21.9593 8.45593 21.425 9.74585 20.4739 10.6969L10.6959 20.4749C9.74488 21.426 8.45496 21.9603 7.10994 21.9603C5.76493 21.9603 4.47501 21.426 3.52394 20.4749C2.57288 19.5239 2.03857 18.2339 2.03857 16.8889C2.03857 15.5439 2.57288 14.254 3.52394 13.3029L13.3019 3.52492ZM19.4129 4.58592C19.0814 4.25423 18.6878 3.9911 18.2545 3.81158C17.8213 3.63206 17.3569 3.53966 16.8879 3.53966C16.419 3.53966 15.9546 3.63206 15.5214 3.81158C15.0881 3.9911 14.6945 4.25423 14.3629 4.58592L10.0039 8.94492L15.0539 13.9949L19.4139 9.63592C19.7456 9.30439 20.0088 8.91076 20.1883 8.47751C20.3678 8.04426 20.4602 7.57989 20.4602 7.11092C20.4602 6.64195 20.3678 6.17758 20.1883 5.74433C20.0088 5.31108 19.7446 4.91745 19.4129 4.58592ZM10.8079 18.2769C10.9404 18.1347 11.0125 17.9467 11.0091 17.7524C11.0057 17.5581 10.927 17.3727 10.7896 17.2353C10.6522 17.0979 10.4668 17.0192 10.2725 17.0157C10.0782 17.0123 9.89012 17.0844 9.74794 17.2169L8.30694 18.6569C8.02944 18.9347 7.65407 19.0926 7.26144 19.0967C6.8688 19.1009 6.49021 18.9508 6.20694 18.6789L6.18994 18.6629C6.1189 18.5947 6.03511 18.5411 5.94337 18.5053C5.85162 18.4695 5.75372 18.452 5.65524 18.454C5.55676 18.456 5.45965 18.4774 5.36943 18.5169C5.27921 18.5565 5.19767 18.6134 5.12944 18.6844C5.06122 18.7555 5.00766 18.8393 4.97182 18.931C4.93598 19.0227 4.91856 19.1206 4.92056 19.2191C4.92255 19.3176 4.94393 19.4147 4.98346 19.5049C5.02299 19.5951 5.0799 19.6767 5.15094 19.7449L5.16794 19.7609C5.73434 20.3049 6.49145 20.6051 7.27672 20.5971C8.062 20.589 8.8128 20.2734 9.36794 19.7179L10.8079 18.2769Z" fill="white"/>
</svg>
