<svg width="4" height="14" viewBox="0 0 4 14" fill="none" xmlns="http://www.w3.org/2000/svg">
<path d="M3.11933 1.8468C3.1194 2.03757 3.08188 2.22649 3.00893 2.40277C2.93598 2.57905 2.82902 2.73923 2.69417 2.87417C2.55931 3.00911 2.3992 3.11617 2.22297 3.18924C2.04674 3.2623 1.85784 3.29994 1.66707 3.3C1.47629 3.30006 1.28737 3.26254 1.11109 3.18959C0.934818 3.11664 0.774635 3.00969 0.639693 2.87483C0.504751 2.73998 0.397692 2.57986 0.324629 2.40363C0.251566 2.2274 0.213929 2.03851 0.213867 1.84773C0.213744 1.46244 0.36668 1.09288 0.639033 0.820357C0.911386 0.547829 1.28084 0.394655 1.66613 0.394531C2.05142 0.394408 2.42098 0.547344 2.69351 0.819697C2.96604 1.09205 3.11921 1.46151 3.11933 1.8468Z" fill="#4F4F4F"/>
<path d="M1.66711 8.28539C2.46917 8.28539 3.11938 7.63519 3.11938 6.83313C3.11938 6.03106 2.46917 5.38086 1.66711 5.38086C0.865045 5.38086 0.214844 6.03106 0.214844 6.83313C0.214844 7.63519 0.865045 8.28539 1.66711 8.28539Z" fill="#4F4F4F"/>
<path d="M1.66711 13.2717C2.46917 13.2717 3.11938 12.6215 3.11938 11.8195C3.11938 11.0174 2.46917 10.3672 1.66711 10.3672C0.865045 10.3672 0.214844 11.0174 0.214844 11.8195C0.214844 12.6215 0.865045 13.2717 1.66711 13.2717Z" fill="#4F4F4F"/>
</svg>
